# xmcd CD database file
#
# Track frame offsets:
#	150
#	7770
#	41527
#	45480
#	80398
#	86553
#	125326
#	129828
#	142225
#	148171
#	228146
#	231198
#	240210
#
# Disc length: 3267 seconds
#
# Revision: 0
# Processed by: cddbd v1.5.1PL0 Copyright (c) Steve Scherf et al.
# Submitted via: CDex 1.51
#
DISCID=980cc10d
DTITLE=Various Artist - Memories of Luois Armstrong
DYEAR=2000
DGENRE=Jazz
TTITLE0=Portrait of A.K.
TTITLE1=Crazy stomp
TTITLE2=Portrait of the band
TTITLE3=Ilda
TTITLE4=Portrait of G.M.
TTITLE5=Blues in black and white
TTITLE6=Portrait of P.I.
TTITLE7=Blue ramble
TTITLE8=Portrait of myself
TTITLE9=Memories of Louis Suite
TTITLE10=Portrait of G.L.P.
TTITLE11=Sugar Maple
TTITLE12=Portrait of M.T.
EXTD=YEAR: 2000
EXTT0=
EXTT1=
EXTT2=
EXTT3=
EXTT4=
EXTT5=
EXTT6=
EXTT7=
EXTT8=
EXTT9=
EXTT10=
EXTT11=
EXTT12=
PLAYORDER=
